<svg width="590" height="240" viewBox="0 0 590 240" fill="none" xmlns="http://www.w3.org/2000/svg">
  <!-- B -->
  <path fill="#1f6fb2" d="M101,0c.9517231.5681623,3.0696692.8090274,4.9764547.9904225,15.4348467,1.468338,29.568071,6.9472302,41.8246476,16.0325621,22.3644935,16.5779444,28.1233159,47.1842738,12.7573032,70.4013059-6.066732,9.1664321-14.9628177,14.8303049-24.8765695,19.2222783,19.5912991,3.3963904,35.4790397,12.4728784,36.3394648,33.3153886.550318,13.330631-6.0525837,24.9661151-18.0738796,30.8937313-9.7762666,5.4882048-20.7215884,6.2221222-31.963921,6.2283706l-41.9520669.0233167-.0061944-130.3114627,15.619717.4104794.0886761,59.191231c17.5666767.7162503,33.3323928,3.7130901,45.0692515-11.6423793,10.455128-13.6785661,14.3109051-31.1995059,11.4129557-48.1774121C147.0678131,16.4176438,119.1765476.3059781,89.9310322,1.9311696,54.8623587,3.8799576,23.2223998,22.6147544,14.4458632,58.2690465c-10.2214703,41.5242712,9.3976348,99.7511342,58.5602105,98.3105076.751836-.0220313-.6583185,2.4906252-1.6250495,2.4840663-8.9957927-.0610328-19.7863065-2.6675284-28.3395362-6.9432773C19.3260853,140.2650426,4.5297916,118.2519426,0,93v-17C5.3577913,27.2292798,40.5282806,3.4448226,87,0h14ZM149.821662,160.3081751c6.0565238-11.8389328,6.1877744-26.0278317.015144-37.2629629-9.9833447-18.171214-37.1579331-13.6267547-54.1601707-13.8802937l.0295674,65.8721458,30.1677003-.2778717c9.7547838-.0898504,19.2916675-5.3495666,23.947759-14.4510175Z"/>
  <!-- E -->
  <path fill="#1f6fb2" d="M590,175v2l-77.6658919.1000119.0013662-129.8865528c25.4300857.2827849,49.9785203-1.2009807,75.4680352.5860642-19.9176902,2.9381723-38.722231.0023941-59.4965968,1.6086912l-.0534312,60.6661292c13.7325847.2340512,25.5622506-.9357087,38.6512529.8393531-13.2698597,2.4407793-25.3828206.1691627-38.6357768,1.5873724l-.0279238,62.5046427,61.7589661-.0057119Z"/>
  <!-- underline bar -->
  <polygon fill="#1f6fb2" points="589 240 84 240 84.4529626 237.9996958 588.5470302 237.9996958 589 240"/>
  <!-- period dot -->
  <path fill="#1f6fb2" d="M590,220.8110199v4.2126007l-2.5607326,1.6845064c-1.3730578.9032277-5.0282903.0581519-5.9954505-1.4648548-.8430176-1.327517-.3410968-4.6177049,1.0288927-5.9093319,1.1361342-1.0711481,4.3987471-.9122244,5.651921.0448387l1.8753694,1.4322409Z"/>
  <!-- O with dome -->
  <path fill="#1f6fb2" d="M320.9736443,112.064289c0,36.201068-29.346764,65.5478321-65.5478321,65.5478321s-65.5478321-29.346764-65.5478321-65.5478321,29.346764-65.5478321,65.5478321-65.5478321,65.5478321,29.346764,65.5478321,65.5478321ZM259.4128146,64.7450829l3.0310238,3.2351898c.5938396.6338399-.5338872,2.6811412-1.1104521,3.7975858-3.0738818,5.9521807,3.3569916,5.2298536,6.3692706,11.4600898,8.1406661,4.5731708,13.1645514,11.2280546,14.704591,20.6097202,1.3985255,8.5195855-1.0797822,5.2650837-.0775631,17.770139.1429926,1.7841714,6.6636373,4.4267561,5.3593449,5.6633378l-2.2675031,2.1497886-.2117883,13.8912931c-.0577601,3.7885119,8.9029576,7.9248841,11.0015915,3.764756,13.8010424-27.357846,7.9472711-61.1702827-12.1879957-83.9497844-7.7587313-8.7776355-18.0310897-13.7270173-29.5130719-14.5680101-12.8000571-.9375346-24.3787663,5.536115-32.0373647,15.9456999-18.2276954,24.7751262-18.8292466,58.0866182-3.1336772,84.3773677,10.4287986.2790912,7.9667388-18.4196264,4.8689269-22.6708719l5.3908212-3.9557044c-.7129333-18.4202929-1.1552943-26.4495963,14.6028837-38.9971941,2.8973756-6.5032184,9.5542168-5.0091306,6.2319821-11.5740253-.5020387-.9920524-1.296491-3.0362797-.9464385-3.8647499.3500825-.8285414,1.5950626-1.7883374,3.0033931-2.9895907l-.0705683-10.4409908c-.009815-1.4521866,2.5904963-4.122793,3.9271161-3.7897041,1.145589.2854835,2.9696369,2.5994967,2.9801589,3.8660059l.0853192,10.2696521ZM293.8345689,152.1916823l-8.0351489-.8143273-1.6253378-2.3778959c-.2891417-.4230191-.8976719,1.331459-1.1326501,1.7867449l-1.1763583,2.2792725-.161609-26.0766898-2.8026662-3.2606649.0144673-17.3193421c.0084463-10.1113983-6.4793624-16.4310165-14.1511299-21.0215647-6.9618643-10.7448006-7.9833063-1.1333688-7.3124577-16.4876374.0260455-.5961247-1.4722491-2.5262134-1.8283914-2.0479537-3.3366643,4.4807703,1.0956501,8.623618-1.9315424,11.6231834l-7.1488762,7.0836335c-6.2963779,6.2389153-12.7142528,11.3963827-13.666829,21.4749402-.4293968,4.5431543,1.4475674,11.8553978-.5624246,16.3756038-1.4528175,3.2671943-2.422562,4.4896407-1.9656729,7.978108.9395439,7.1736627.7539502,13.9060675.2744447,21.3073685l-2.0611151-3.8170774c-2.4593368,1.9498101-3.7289696,2.6561398-7.1422873,3.5480133,4.244226,6.632922,10.2161367,13.2522377,17.5907467,17.6395372,20.8619819,12.4112004,43.9888747,2.8018612,54.824838-17.873252Z"/>
  <!-- S -->
  <path fill="#1f6fb2" d="M482.3930605,158.6984098c-9.8280018,20.4683556-40.6121843,23.374524-61.8480518,16.4394214-8.7514433-2.8580023-16.2949767-6.9801787-24.6028477-11.2616492l.2830053-13.8694203c13.045787,22.9099343,41.8159737,32.4998055,66.0441541,21.5683573,7.169997-3.2350118,11.4841116-9.7406439,12.2928286-16.5909138,2.9689943-25.1489833-36.9310904-29.9697678-61.235041-48.2938365-14.4162084-10.8691627-19.1479182-30.2495447-9.3769812-45.7344525,14.6912451-23.2825751,54.1973062-18.0660592,75.1278615-4.9337228.1877592,2.7363809.1243797,5.2466706-.2402517,8.1543213-9.934657-10.2180298-22.1255737-15.699694-36.3432177-17.8002194-13.0520919-1.9283259-32.3853562,5.1737205-32.9805021,22.3923979-.8402218,24.3091787,38.0121673,29.9511454,61.6493178,48.0000137,13.1271668,10.0236492,18.4548068,26.8823385,11.2297259,41.9297028Z"/>
  <!-- I -->
  <rect fill="#1f6fb2" x="349.6141663" y="47.2204742" width="15.9212646" height="129.9370117"/>
  <!-- emblem circle -->
  <path fill="#1f6fb2" d="M546.1860621,207.9803847c0,10.8915508-8.8293465,19.7208973-19.7208973,19.7208973s-19.7208973-8.8293465-19.7208973-19.7208973,8.8293465-19.7208973,19.7208973-19.7208973,19.7208973,8.8293465,19.7208973,19.7208973ZM537.210579,207.4694096c-.1867932-7.6213485-5.1181116-12.1755734-11.7346274-11.6768271-6.1725718.4652822-9.7599585,5.5989237-9.7657326,12.2064189-.0061162,6.9989795,4.1631473,12.1179352,10.7985356,12.0943536,6.5377402-.0232346,10.8888806-4.9918704,10.7018244-12.6239454Z"/>
  <!-- R -->
  <path fill="#1f6fb2" d="M240.7272133,226.6981297l-7.4980102-12.7513233c-.5886071-1.0010016-4.1709801-1.324663-5.2346161-.8465385l-.1830211,13.5404985-7.9863773.1207066.0118479-37.7591214,15.725319.293266c5.4615684.1018544,9.6198767,3.924033,10.4447551,8.3174057.9511812,5.0660718-.9577915,10.1852742-5.8755397,12.8731785,3.8370331,5.1446393,6.9095866,9.9824461,10.5577139,16.3189775l-9.9620716-.1070497ZM236.3433272,196.3951203c-2.4606242-1.5545272-5.2573715-1.5159989-8.4765237-1.389979l.2485035,11.853506c4.0393592.2201761,7.3741047-.4388063,8.8673238-2.2533988,1.5129956-1.8386252,1.7660136-6.6905418-.6393036-8.2101282Z"/>
  <!-- A -->
  <path fill="#1f6fb2" d="M172.6594987,218.3815003l-14.1610051.0209952-3.08924,8.3827861-8.8261978-.1155067,13.8063715-37.4189871,9.7717227-.1833086,14.3875364,37.7035216-8.8965062-.1710428-2.9926815-8.2184577ZM170.837992,212.2221135l-5.2216553-14.4107782-5.1976589,14.4847135,10.4193142-.0739353Z"/>
  <!-- P -->
  <path fill="#1f6fb2" d="M101.3553315,213.6766598l-8.8965149.8697463-.0899255,12.2472914-8.0746524-.053526.0918085-37.82019,16.1867177.3769238c6.9349925.1614882,11.4082486,6.0736406,10.9636966,12.7038453-.37869,5.6479159-3.6742138,11.0397762-10.1811299,11.6759091ZM100.69687,195.9321656c-2.231539-1.1332918-5.8568924-1.0259185-8.2925012-.8860888l.0900672,12.4168859c2.7049676.1596398,6.0800149.3280342,8.1042003-.6965531,3.7696932-1.9081156,4.254876-8.7232846.0982337-10.8342441Z"/>
  <!-- C -->
  <path fill="#1f6fb2" d="M454.7075755,218.882835c9.9644895,5.5292486,13.0879577-7.7612871,17.5959067,2.9674487-6.9111722,7.6491707-20.5336181,7.6045753-27.4386105-.6415169-5.6787218-6.7816531-6.0623661-17.1100234-1.1418013-24.413131,6.5167168-9.6721183,20.3842496-10.8039266,29.0098589-3.6825834-3.6935462,11.7137362-8.1364449-1.525813-17.9904844,4.0852221-3.3932278,1.9321538-5.6605619,6.6645386-5.3938821,11.6074693.2249906,4.1702195,2.4164267,8.4442639,5.3590128,10.0770912Z"/>
  <!-- Y -->
  <path fill="#1f6fb2" d="M381.1501193,189.3906762l-13.2362302,22.8704035-.3142369,14.4341147-7.8067065.2548474-.2426939-14.5479151-13.2109632-22.8465525c2.9833096-.7622202,7.0655422-.7801113,9.6406266.2757087l7.7502787,16.0126598,7.8101473-16.2602912c2.5577256-.5697615,5.4197868-.5983226,9.609778-.1929754Z"/>
  <!-- T -->
  <polygon fill="#1f6fb2" points="302.5659198 226.8551811 294.4879571 226.7176933 294.4597384 196.0167876 283.3489947 195.9819735 283.2637505 189.0073087 313.8720712 188.9960835 313.9343733 195.9129456 302.596355 196.0432832 302.5659198 226.8551811"/>
  <!-- dome detail paths -->
  <path fill="#1f6fb2" d="M258.4956777,131.273109c2.717211,30.4637487-4.3321891,19.7240443-4.3241963,20.5553846l-.190468-19.8108071c-.0069402-.7218584,1.0502132-2.3706045,1.5853825-2.8111178.6682087-.5500218,2.8491426,1.1680676,2.9292818,2.0665403Z"/>
  <path fill="#1f6fb2" d="M264.859365,151.2200962c.0034863.7205398-2.185366,2.030448-2.6329315,1.696942-.5961132-.4441971-1.3218726-1.8823869-1.3228472-2.8131673l-.0189826-18.1286093c-.0007253-.6926658.911118-2.3352463,1.3685429-2.8732431.4556629-.5359245,2.5061204,1.430055,2.5100416,2.2404633l.0961768,19.8776144Z"/>
  <path fill="#1f6fb2" d="M251.3815817,152.0513535c-.1520379.6583712-3.5844734.2400735-3.5854644-.4209299l-.0290318-19.3645875c-.0008803-.5871607.8333922-2.324202,1.1048138-2.8045864,4.227257-7.481748,3.2102584,23.6317985,2.5096823,22.5901038Z"/>
  <rect fill="#1f6fb2" x="267.220459" y="129.7873993" width="3.0945129" height="22.826767"/>
  <path fill="#1f6fb2" d="M242.255955,151.1250445l-.0527309-19.0915253c-.0031698-1.1476308,1.9917043-2.7785824,2.964976-2.0373185l.1852295,20.5277264c.0045306.5020981-.6554952,1.879586-.7766233,2.2033225-.1853294.495326-2.3185402-.7654727-2.3208513-1.6022051Z"/>
  <path fill="#1f6fb2" d="M238.6883622,153.5691466c-2.6460532-7.9713751-2.6636961-15.990549.1616501-24.022971,1.6566437,8.1699708,1.9229273,15.737347-.1616501,24.022971Z"/>
  <path fill="#1f6fb2" d="M273.7699615,123.8174903l-35.8534264-.0396499c11.4625363-2.1986143,22.9878674-3.0046223,35.8534264.0396499Z"/>
  <path fill="#1f6fb2" d="M233.8920886,153.5636397c-1.327255-6.4942789-.8497236-15.277905-.9857848-21.2830052l1.9363661-2.4080952c.0599201,8.2144051.9759335,15.3542477-.9505814,23.6911004Z"/>
  <path fill="#1f6fb2" d="M273.113542,129.9781286c2.6685899-5.6502951,2.45787,26.1690888.8213175,23.7676936-1.5185932-8.0757967-.9076264-15.5650542-.8213175-23.7676936Z"/>
  <path fill="#1f6fb2" d="M270.8415417,107.7578439c-9.6521519.3233043-19.4033603.3432802-29.9032223-.0788287,12.7516678-1.5920007,14.9449273-2.212219,29.9032223.0788287Z"/>
  <path fill="#1f6fb2" d="M258.7955878,114.1271894c-.0693205,1.9099224.1358623,4.3716645-.6661484,4.3677044l-3.6224367-.0178867c-.6865315-.0033899-1.7989936-4.953797,1.1157004-6.9485412.8582399-.5873581,3.2136547,1.4754276,3.1728847,2.5987236Z"/>
  <path fill="#1f6fb2" d="M264.6504606,111.9702187c1.6675,1.1589903,1.2135183,6.4356801.5981672,6.6251973-.7237039.2228879-3.2263182.5764404-3.3476497-.1658582l-.5600492-3.4263454c-.1200238-.7342982.4432089-2.7133162.9880052-3.115496.5437313-.4013936,1.7674313-.3026196,2.3215264.0825023Z"/>
  <path fill="#1f6fb2" d="M278.5921344,153.1512635l-.8070081-9.0813704c-.4018428-4.5219911-2.5026856-9.2831768.8002437-13.9498663.5626595,8.1422696.5739484,15.0233166.0067644,23.0312367Z"/>
  <path fill="#1f6fb2" d="M250.0236258,111.75509c1.3873747.3957517,1.3841575,6.9064029.3696183,6.8901993l-2.9415258-.0469802c-.8254351-.0131833-1.1811312-4.3979927.168231-6.3008532.4171503-.5882622,1.7103522-.7401382,2.4036765-.542366Z"/>
  <path fill="#1f6fb2" d="M272.0890067,115.1877343l-.5298814,3.7756765c-.0974136.6941217-1.5834823.3708991-2.2292167.1003422-.6459139-.2706321-1.0090997-2.1617662-.9646765-2.8689542l.2117142-3.3703532c.0340591-.5421981,1.3418524-.8289951,1.874004-.6748279.7118412.2062242,1.73847,2.322618,1.6380564,3.0381166Z"/>
  <path fill="#1f6fb2" d="M244.1787381,114.2672013l-.2738013,3.9651655c-.0538911.7804459-1.6434402.938743-2.9217443.997121-.7715637-4.199275-1.1562968-5.4792262,1.687658-7.3352637.4860261-.3171931,1.5518614,1.7361529,1.5078876,2.3729772Z"/>
  <path fill="#1f6fb2" d="M275.7858517,105.0650804c-2.4855285-6.2063654-5.4560163-10.5324735-9.8317208-15.2280364,6.0802641,2.6673648,10.0567359,9.1439072,9.8317208,15.2280364Z"/>
  <path fill="#1f6fb2" d="M247.4938724,106.2442343c-.6849994-5.7638551.6645711-11.4446705,4.5036511-15.4761802l-4.5036511,15.4761802Z"/>
  <path fill="#1f6fb2" d="M242.2563148,106.096594c-.7026267-5.5147257,1.7426651-11.8174496,6.7902916-15.1763172-2.8638906,5.0326954-4.8060114,9.467585-6.7902916,15.1763172Z"/>
  <path fill="#1f6fb2" d="M270.8528101,105.8811272c-3.7193747-5.3689076-2.9499718-11.9667244-9.094446-14.9971902,2.1249105,4.9376268,3.9139448,9.1694661,3.0283849,14.1678367l-4.6283985-14.7034396,3.7661144-.1063843c3.7213625,4.3887797,6.7874373,9.7423923,6.9283452,15.6391774Z"/>
  <rect fill="#1f6fb2" x="235.173233" y="112.7716522" width="2.566925" height="7.0236206"/>
  <path fill="#1f6fb2" d="M236.3262767,107.0707329c-.5588798-7.0132962,3.8963285-14.0654935,10.7390016-17.1635508-5.2456508,4.9491724-8.8131997,9.9152156-10.7390016,17.1635508Z"/>
  <path fill="#1f6fb2" d="M259.4786203,105.1087652l-2.3833296-15.2433679c2.9470708,4.7233528,3.5881167,10.0746463,2.3833296,15.2433679Z"/>
  <path fill="#1f6fb2" d="M253.5761982,105.1142679c-1.0565471-4.7844367-1.13063-9.7922242,1.2920049-14.2824176l-1.2920049,14.2824176Z"/>
  <path fill="#1f6fb2" d="M275.3511784,120.7458404l-.3179772-8.8775068c2.8253604,1.9204901,3.3506524,5.7299934.3179772,8.8775068Z"/>
</svg>
