<?xml version="1.0" encoding="UTF-8"?>
<svg id="Layer_2" data-name="Layer 2" xmlns="http://www.w3.org/2000/svg" viewBox="0 0 131.0956421 131.0956573">
  <defs>
    <style>
      .cls-1 {
        fill: #1f6fb2;
      }
    </style>
  </defs>
  <g id="Layer_1-2" data-name="Layer 1">
    <path class="cls-1" d="M131.0956421,65.547821c0,36.2010651-29.3467712,65.5478363-65.547821,65.5478363S0,101.7488861,0,65.5478287,29.3467712,0,65.547821,0s65.547821,29.3467636,65.547821,65.547821ZM69.5348206,18.2286224l3.0310364,3.2351913c.5938416.6338425-.5338745,2.6811447-1.1104431,3.7975845-3.0738831,5.952179,3.3569946,5.2298508,6.3692627,11.4600906,8.1406555,4.5731735,13.1645508,11.2280579,14.7045898,20.6097183,1.3985291,8.5195847-1.0797729,5.2650833-.0775757,17.7701416.1430054,1.7841721,6.6636353,4.4267578,5.3593445,5.6633377l-2.2675171,2.1497879-.211792,13.8912964c-.0577698,3.7885132,8.9029541,7.924881,11.0015869,3.7647552,13.8010559-27.3578491,7.9472656-61.1702881-12.1879883-83.9497833-7.758728-8.7776337-18.0310974-13.7270164-29.5130768-14.5680084-12.8000641-.9375343-24.3787689,5.5361137-32.0373688,15.9457016-18.2276917,24.7751236-18.8292542,58.0866165-3.1336823,84.3773727,10.4288025.2790985,7.9667358-18.419632,4.868927-22.6708679l5.3908234-3.9557037c-.7129364-18.4202957-1.1552887-26.4496002,14.60289-38.9971924,2.8973694-6.5032196,9.5542145-5.0091324,6.2319794-11.574028-.5020447-.9920502-1.2964935-3.0362778-.9464417-3.8647537.3500824-.8285446,1.5950623-1.7883377,3.0033875-2.9895935l-.0705719-10.4409904c-.0098114-1.4521866,2.5904999-4.1227913,3.9271088-3.7897034,1.1455994.2854843,2.969635,2.5994949,2.9801636,3.8660049l.0853271,10.2696495.0000305-.0000076ZM103.9565735,105.6752167l-8.0351562-.8143311-1.6253357-2.3778992c-.2891541-.4230194-.8976746,1.3314514-1.1326599,1.7867432l-1.1763611,2.2792664-.1616211-26.0766907-2.8026733-3.2606659.0144653-17.3193436c.0084534-10.1113968-6.4793701-16.431015-14.151123-21.0215683-6.961853-10.7447968-7.9833069-1.1333694-7.3124695-16.4876404.0260315-.5961227-1.4722443-2.5262146-1.8283844-2.0479507-3.3366699,4.4807663,1.0956573,8.6236191-1.9315491,11.6231842l-7.14888,7.0836334c-6.2963715,6.2389145-12.7142487,11.3963852-13.6668243,21.4749374-.4293976,4.5431519,1.4475708,11.8554001-.5624237,16.3756027-1.4528198,3.2671967-2.4225616,4.4896393-1.9656677,7.9781113.9395447,7.1736603.753952,13.9060669.2744446,21.307373l-2.0611115-3.8170776c-2.4593353,1.9498138-3.7289734,2.6561432-7.1422882,3.5480194,4.2442322,6.6329193,10.2161407,13.252243,17.590744,17.6395416,20.8619843,12.4111938,43.9888763,2.8018646,54.8248444-17.8732452h.0000305Z"/>
    <path class="cls-1" d="M68.6176758,84.7566376c2.7172241,30.4637451-4.3321838,19.7240448-4.3242035,20.5553894l-.1904755-19.8108063c-.0069427-.7218628,1.0502167-2.3706055,1.5853882-2.8111115.6682129-.5500183,2.8491516,1.1680603,2.9292908,2.0665436v-.0000153Z"/>
    <path class="cls-1" d="M74.9813843,104.7036285c.003479.7205353-2.1853638,2.0304413-2.6329346,1.6969452-.5960999-.4441986-1.3218689-1.8823853-1.3228455-2.8131714l-.0189819-18.1286163c-.0007324-.6926727.9111328-2.3352509,1.3685303-2.8732452.455658-.5359192,2.506134,1.4300537,2.5100403,2.2404633l.0961914,19.8776093v.0000153Z"/>
    <path class="cls-1" d="M61.5035858,105.5348969c-.1520386.658371-3.5844727.2400665-3.5854645-.420929l-.0290375-19.3645935c-.000885-.5871582.8333893-2.3242035,1.1048126-2.8045807,4.2272644-7.4817505,3.2102661,23.6317902,2.5096893,22.5901031Z"/>
    <rect class="cls-1" x="77.3424683" y="83.2709351" width="3.0945129" height="22.826767"/>
    <path class="cls-1" d="M52.3779602,104.6085815l-.0527344-19.0915222c-.0031738-1.1476288,1.9916992-2.7785797,2.9649811-2.037323l.1852264,20.5277252c.0045319.5021057-.6555023,1.8795929-.7766266,2.2033234-.1853333.4953308-2.3185425-.7654724-2.3208466-1.6022034Z"/>
    <path class="cls-1" d="M48.810379,107.0526886c-2.6460571-7.9713745-2.6636963-15.9905548.1616516-24.0229645,1.6566467,8.1699677,1.9229279,15.7373505-.1616516,24.0229645Z"/>
    <path class="cls-1" d="M83.8919678,77.3010254l-35.8534241-.03965c11.4625397-2.198616,22.987854-3.0046234,35.8534241.03965Z"/>
    <path class="cls-1" d="M44.0140991,107.0471802c-1.3272552-6.494278-.8497162-15.2779083-.9857788-21.2830048l1.9363708-2.4080963c.0599213,8.2144012.9759369,15.354248-.9505768,23.6911011h-.0000153Z"/>
    <path class="cls-1" d="M83.2355652,83.4616699c2.6685791-5.6502991,2.4578552,26.1690826.8213196,23.7677002-1.5185852-8.0757904-.9076233-15.5650482-.8213196-23.7677002Z"/>
    <path class="cls-1" d="M80.963562,61.2413788c-9.6521606.3233032-19.4033661.343277-29.9032288-.0788269,12.7516632-1.5920029,14.944931-2.2122192,29.9032288.0788269Z"/>
    <path class="cls-1" d="M68.9176025,67.6107254c-.0693054,1.9099197.1358643,4.371666-.6661377,4.3677063l-3.6224365-.0178833c-.6865387-.0033875-1.798996-4.9537964,1.1157074-6.9485397.8582306-.5873566,3.2136688,1.4754257,3.1728973,2.5987244l-.0000305-.0000076Z"/>
    <path class="cls-1" d="M74.7724609,65.4537582c1.667511,1.158989,1.2135315,6.4356766.598175,6.6251984-.7236938.2228851-3.2263184.5764389-3.3476562-.1658554l-.5600586-3.4263458c-.1200256-.7342987.4432068-2.7133179.9880066-3.1154938.5437317-.4013901,1.7674255-.3026199,2.3215332.0824966Z"/>
    <path class="cls-1" d="M88.7141418,106.6347961l-.8070068-9.0813751c-.4018555-4.5219879-2.5026855-9.2831726.8002319-13.9498596.5626526,8.1422729.5739441,15.0233154.0067749,23.0312347Z"/>
    <path class="cls-1" d="M60.1456299,65.2386246c1.3873749.395752,1.3841553,6.9064026.3696136,6.8901978l-2.9415283-.0469818c-.8254395-.0131836-1.1811371-4.397995.1682281-6.3008499.4171448-.5882645,1.7103577-.7401352,2.4036713-.542366h.0000153Z"/>
    <path class="cls-1" d="M82.2110291,68.6712723l-.5298767,3.7756729c-.0974121.6941223-1.5834961.3708954-2.2292175.1003418-.6459045-.2706299-1.0090942-2.1617661-.9646912-2.8689575l.2117004-3.3703537c.0340576-.5421982,1.3418579-.8289948,1.8739929-.6748276.711853.2062225,1.7384644,2.3226166,1.6380615,3.0381165l.0000305.0000076Z"/>
    <path class="cls-1" d="M54.3007507,67.7507401l-.2738037,3.9651642c-.053894.7804489-1.6434326.9387436-2.9217377.9971237-.7715607-4.1992722-1.1562958-5.4792252,1.6876526-7.3352661.4860229-.3171921,1.5518646,1.7361526,1.5078888,2.3729782Z"/>
    <path class="cls-1" d="M85.9078674,58.5486145c-2.4855347-6.2063675-5.4560242-10.5324707-9.8317261-15.228035,6.0802612,2.667366,10.0567322,9.1439056,9.8317261,15.228035Z"/>
    <path class="cls-1" d="M57.6158752,59.7277679c-.6849976-5.763855.664566-11.4446716,4.5036469-15.476181l-4.5036469,15.476181Z"/>
    <path class="cls-1" d="M52.3783264,59.5801315c-.7026215-5.5147247,1.7426605-11.8174515,6.7902985-15.1763153-2.8638916,5.032692-4.806015,9.4675827-6.7902985,15.1763153Z"/>
    <path class="cls-1" d="M80.974823,59.3646622c-3.7193604-5.3689041-2.9499817-11.9667282-9.0944519-14.9971924,2.1249084,4.9376297,3.9139404,9.1694641,3.0283813,14.1678391l-4.6283875-14.7034378,3.7661133-.1063843c3.7213745,4.3887787,6.7874451,9.7423935,6.9283447,15.6391754Z"/>
    <rect class="cls-1" x="45.2952423" y="66.255188" width="2.566925" height="7.0236206"/>
    <path class="cls-1" d="M46.448288,60.5542679c-.5588837-7.013298,3.8963318-14.0654907,10.7389984-17.1635513-5.2456512,4.949173-8.8132019,9.9152145-10.7389984,17.1635513Z"/>
    <path class="cls-1" d="M69.6006165,58.5923004l-2.3833313-15.2433701c2.9470825,4.7233505,3.5881042,10.074646,2.3833313,15.2433701Z"/>
    <path class="cls-1" d="M63.6982117,58.5978012c-1.0565491-4.7844391-1.1306305-9.7922211,1.2920074-14.2824173l-1.2920074,14.2824173Z"/>
    <path class="cls-1" d="M85.473175,74.2293777l-.3179626-8.8775101c2.8253479,1.9204865,3.350647,5.7299957.3179626,8.8775101Z"/>
  </g>
</svg>
